<svg width="9" height="10" viewBox="0 0 9 10" fill="none" xmlns="http://www.w3.org/2000/svg">
<path fill-rule="evenodd" clip-rule="evenodd" d="M2.19808 3.06234C2.19808 1.79093 3.22876 0.760254 4.50016 0.760254C5.77157 0.760254 6.80225 1.79093 6.80225 3.06234C6.80225 4.33374 5.77157 5.36442 4.50016 5.36442C3.22876 5.36442 2.19808 4.33374 2.19808 3.06234ZM4.50016 1.57275C3.67749 1.57275 3.01058 2.23966 3.01058 3.06234C3.01058 3.88501 3.67749 4.55192 4.50016 4.55192C5.32284 4.55192 5.98975 3.88501 5.98975 3.06234C5.98975 2.23966 5.32284 1.57275 4.50016 1.57275Z" fill="white"/>
<path fill-rule="evenodd" clip-rule="evenodd" d="M2.3335 6.98942C1.6604 6.98942 1.11475 7.53507 1.11475 8.20817V8.85182C1.11475 8.86162 1.12185 8.86998 1.13152 8.87156C3.36251 9.2358 5.63781 9.2358 7.8688 8.87156C7.87848 8.86998 7.88558 8.86162 7.88558 8.85182V8.20817C7.88558 7.53507 7.33993 6.98942 6.66683 6.98942H6.48219C6.46792 6.98942 6.45373 6.99168 6.44016 6.99611L5.97134 7.14919C5.01539 7.46134 3.98493 7.46134 3.02899 7.14919L2.56017 6.99611C2.5466 6.99168 2.53241 6.98942 2.51813 6.98942H2.3335ZM0.302246 8.20817C0.302246 7.08634 1.21167 6.17692 2.3335 6.17692H2.51813C2.61807 6.17692 2.71737 6.19272 2.81237 6.22374L3.28119 6.37683C4.07326 6.63546 4.92707 6.63546 5.71914 6.37683L6.18796 6.22374C6.28295 6.19272 6.38226 6.17692 6.48219 6.17692H6.66683C7.78866 6.17692 8.69808 7.08634 8.69808 8.20817V8.85182C8.69808 9.25982 8.40239 9.6077 7.99972 9.67344C5.68203 10.0518 3.3183 10.0518 1.0006 9.67344C0.597933 9.6077 0.302246 9.25982 0.302246 8.85182V8.20817Z" fill="white"/>
</svg>
