<svg width="16" height="16" viewBox="0 0 16 16" fill="none" xmlns="http://www.w3.org/2000/svg">
<path d="M6.3335 9.56472C6.67867 9.56472 6.9585 9.84454 6.9585 10.1897V11.8564C6.9585 12.2016 6.67867 12.4814 6.3335 12.4814C5.98832 12.4814 5.7085 12.2016 5.7085 11.8564V10.1897C5.7085 9.84454 5.98832 9.56472 6.3335 9.56472Z" fill="#222222"/>
<path d="M10.2918 10.1897C10.2918 9.84454 10.012 9.56472 9.66683 9.56472C9.32165 9.56472 9.04183 9.84454 9.04183 10.1897V11.8564C9.04183 12.2016 9.32165 12.4814 9.66683 12.4814C10.012 12.4814 10.2918 12.2016 10.2918 11.8564V10.1897Z" fill="#222222"/>
<path fill-rule="evenodd" clip-rule="evenodd" d="M6.04143 1.33555C6.21402 1.03662 6.11159 0.654377 5.81266 0.481788C5.51373 0.309199 5.13148 0.411621 4.95889 0.710554L3.29223 3.5973C3.26726 3.64055 3.24805 3.68554 3.23435 3.73139H3.00016C1.73451 3.73139 0.708496 4.7574 0.708496 6.02305C0.708496 6.73899 1.0368 7.37826 1.55107 7.7985L2.10686 11.6191L2.47914 13.3634C2.7022 14.4085 3.55536 15.2023 4.6138 15.3496C6.86055 15.6622 9.13977 15.6622 11.3865 15.3496C12.445 15.2023 13.2981 14.4085 13.5212 13.3634L13.8935 11.6191L14.4492 7.7985C14.9635 7.37826 15.2918 6.73899 15.2918 6.02305C15.2918 4.7574 14.2658 3.73139 13.0002 3.73139H12.766C12.7523 3.68554 12.7331 3.64055 12.7081 3.5973L11.0414 0.710554C10.8688 0.411621 10.4866 0.309199 10.1877 0.481788C9.88873 0.654377 9.78631 1.03662 9.9589 1.33555L11.3421 3.73139H4.65819L6.04143 1.33555ZM13.1114 8.31207C13.0745 8.31383 13.0374 8.31472 13.0002 8.31472H3.00016C2.96287 8.31472 2.92579 8.31383 2.88894 8.31207L3.33791 11.3984L3.70161 13.1025C3.81493 13.6334 4.24835 14.0367 4.78606 14.1115C6.91852 14.4082 9.0818 14.4082 11.2143 14.1115C11.752 14.0367 12.1854 13.6334 12.2987 13.1025L12.6624 11.3984L13.1114 8.31207ZM1.9585 6.02305C1.9585 5.44776 2.42487 4.98139 3.00016 4.98139H13.0002C13.5755 4.98139 14.0418 5.44776 14.0418 6.02305C14.0418 6.59835 13.5755 7.06472 13.0002 7.06472H3.00016C2.42487 7.06472 1.9585 6.59835 1.9585 6.02305Z" fill="#222222"/>
</svg>
