<svg width="11" height="11" viewBox="0 0 11 11" fill="none" xmlns="http://www.w3.org/2000/svg">
<path d="M4.4165 6.17715C4.64087 6.17715 4.82275 6.35904 4.82275 6.5834V7.66674C4.82275 7.8911 4.64087 8.07299 4.4165 8.07299C4.19214 8.07299 4.01025 7.8911 4.01025 7.66674V6.5834C4.01025 6.35904 4.19214 6.17715 4.4165 6.17715Z" fill="white"/>
<path d="M6.98942 6.5834C6.98942 6.35904 6.80754 6.17715 6.58317 6.17715C6.35881 6.17715 6.17692 6.35904 6.17692 6.5834V7.66674C6.17692 7.8911 6.35881 8.07299 6.58317 8.07299C6.80754 8.07299 6.98942 7.8911 6.98942 7.66674V6.5834Z" fill="white"/>
<path fill-rule="evenodd" clip-rule="evenodd" d="M4.22666 0.828193C4.33884 0.633886 4.27227 0.385428 4.07796 0.273245C3.88366 0.161062 3.6352 0.227636 3.52301 0.421943L2.43968 2.29833C2.42345 2.32644 2.41096 2.35568 2.40206 2.38549H2.24984C1.42716 2.38549 0.760254 3.05239 0.760254 3.87507C0.760254 4.34043 0.973652 4.75595 1.30793 5.02911L1.66919 7.51248L1.91117 8.64627C2.05616 9.32559 2.61071 9.84157 3.2987 9.9373C4.75909 10.1405 6.24058 10.1405 7.70098 9.9373C8.38896 9.84157 8.94352 9.32559 9.0885 8.64627L9.33049 7.51248L9.69174 5.02911C10.026 4.75595 10.2394 4.34043 10.2394 3.87507C10.2394 3.05239 9.57251 2.38549 8.74984 2.38549H8.59761C8.58871 2.35568 8.57622 2.32644 8.55999 2.29833L7.47666 0.421943C7.36448 0.227636 7.11602 0.161062 6.92171 0.273245C6.72741 0.385428 6.66083 0.633886 6.77302 0.828193L7.67212 2.38549H3.32756L4.22666 0.828193ZM8.82213 5.36293C8.79818 5.36407 8.77407 5.36465 8.74984 5.36465H2.24984C2.2256 5.36465 2.2015 5.36407 2.17754 5.36293L2.46938 7.36905L2.70578 8.47668C2.77943 8.82179 3.06116 9.08392 3.41067 9.13255C4.79677 9.32541 6.2029 9.32541 7.589 9.13255C7.93852 9.08392 8.22024 8.82179 8.2939 8.47668L8.5303 7.36905L8.82213 5.36293ZM1.57275 3.87507C1.57275 3.50113 1.87589 3.19799 2.24984 3.19799H8.74984C9.12378 3.19799 9.42692 3.50113 9.42692 3.87507C9.42692 4.24901 9.12378 4.55215 8.74984 4.55215H2.24984C1.87589 4.55215 1.57275 4.24901 1.57275 3.87507Z" fill="white"/>
</svg>
