<svg width="16" height="16" viewBox="0 0 16 16" fill="none" xmlns="http://www.w3.org/2000/svg">
<path d="M4.0794 16C4.04924 16.0073 4.01781 16.0073 3.98765 16C3.94987 15.9823 3.91786 15.9541 3.89536 15.9187C3.87285 15.8833 3.8608 15.8421 3.86061 15.8V12.3571H0.218791C0.161967 12.3572 0.10736 12.3348 0.0665253 12.2948C0.0256909 12.2548 0.00183305 12.2003 0 12.1429V0.221429C0 0.162702 0.0230512 0.106381 0.0640825 0.064855C0.105114 0.023329 0.160764 3.30911e-08 0.218791 3.30911e-08H15.7883C15.8167 -1.59446e-05 15.8448 0.00575427 15.871 0.016967C15.8971 0.0281798 15.9208 0.0446058 15.9405 0.0652668C15.9603 0.0859279 15.9757 0.110401 15.986 0.13723C15.9962 0.164058 16.0009 0.192693 16 0.221429V12.1429C16.0009 12.1716 15.9962 12.2002 15.986 12.2271C15.9757 12.2539 15.9603 12.2784 15.9405 12.299C15.9208 12.3197 15.8971 12.3361 15.871 12.3473C15.8448 12.3585 15.8167 12.3643 15.7883 12.3643H8.08822L4.23467 15.9429C4.2139 15.9624 4.18944 15.9776 4.16277 15.9874C4.1361 15.9972 4.10774 16.0015 4.0794 16ZM0.437583 11.9143H4.0794C4.10781 11.9143 4.13593 11.92 4.16209 11.9313C4.18825 11.9425 4.21191 11.9589 4.23167 11.9796C4.25143 12.0002 4.26687 12.0247 4.27709 12.0515C4.2873 12.0783 4.29208 12.107 4.29113 12.1357V15.2786L7.85532 11.9786C7.87443 11.9583 7.89743 11.9421 7.9229 11.931C7.94838 11.92 7.97581 11.9143 8.00353 11.9143H15.5695V0.442857H0.437583V11.9143Z" fill="white"/>
</svg>
