<svg width="55" height="33" viewBox="0 0 55 33" fill="none" xmlns="http://www.w3.org/2000/svg">
<path d="M22.1172 3.71057C22.1172 3.71057 21.7075 2.23476 21.823 1.61722C21.9386 0.999686 21.4518 -0.0853645 21.2277 0.00534727C21.0036 0.096059 21.0562 1.18809 21.0071 1.36951C20.9581 1.55093 19.4034 3.41401 19.2563 4.07342C19.1093 4.73282 19.0287 5.25616 18.1603 5.34687C17.2919 5.43758 15.9403 5.32245 15.1489 6.52612C14.3575 7.7298 13.8288 8.45898 13.279 9.34517C12.5721 10.3792 12.1121 11.5607 11.9344 12.7992C11.7523 14.2994 11.8434 15.8415 10.5898 16.1381C9.3362 16.4346 7.25974 16.487 6.48588 16.1381C5.71202 15.7892 3.88417 13.8214 2.85819 13.8214C1.83221 13.8214 1.14939 13.9784 0.557619 14.6623C-0.0341566 15.3461 -0.0901826 15.7508 0.0919021 15.7299C0.273987 15.7089 0.617146 15.6845 0.617146 15.6845C0.617146 15.6845 0.571625 16.2986 0.890274 16.3823C1.20892 16.466 1.41202 16.1695 1.84622 15.7369C2.28042 15.3042 2.73563 15.1228 3.21536 15.9636C3.69508 16.8045 3.98922 18.1442 5.70151 18.5315C7.41381 18.9187 8.4608 19.2118 8.15265 19.3723C7.84451 19.5328 6.71698 19.3932 7.10216 19.6444C7.48734 19.8956 9.24866 20.098 10.7964 19.6444C12.3441 19.1909 13.3736 18.6885 13.7623 18.3256C14.1509 17.9628 14.6272 17.122 14.7217 17.3278C14.8163 17.5336 14.7427 17.8476 15.45 17.0312C16.1574 16.2148 17.4775 14.76 18.6645 14.9623C19.8516 15.1647 20.9231 15.4857 21.816 16.4625C22.7089 17.4394 22.7054 18.0989 22.954 18.4163C23.2027 18.7338 23.5493 19.8119 22.6599 21.3261C21.7705 22.8403 20.6079 25.0278 20.1737 26.5595C19.7395 28.0911 20.0582 28.5586 19.2388 29.1029C18.4194 29.6472 17.6666 30.1042 17.6211 30.4217C17.5755 30.7392 17.7121 30.7706 17.7121 30.7706L21.837 32.044C22.0103 31.943 22.1462 31.7889 22.2244 31.6047C22.3027 31.4205 22.3191 31.216 22.2712 31.0218C22.1101 30.324 22.1802 29.3192 22.5444 28.9075C22.979 28.3377 23.3325 27.7107 23.5948 27.0444C23.6859 26.7269 25.3036 24.7522 25.3036 24.7522C25.8935 25.8811 26.3035 27.0947 26.5187 28.3493C26.7708 30.1426 26.8689 30.5298 26.3821 31.0288C25.8954 31.5277 25.3562 31.4858 25.3316 32.0754C25.3077 32.2155 25.3157 32.3591 25.3551 32.4956C25.3945 32.6321 25.4643 32.758 25.5593 32.8639H30.3495C30.3495 32.8639 30.395 31.5765 30.1219 30.9834C29.8487 30.3903 29.0504 25.1011 28.9383 24.1626C28.8263 23.2241 28.5041 22.4181 28.5882 22.0274C28.6722 21.6366 29.0014 20.6318 29.0014 20.6318C29.0014 20.6318 31.1023 22.2472 33.2033 22.3379C34.5891 22.3839 35.9763 22.3233 37.3527 22.1565C37.3527 22.1565 37.857 24.4731 37.3527 26.085C36.8485 27.6968 37.0026 29.0157 36.3513 30.0833C35.7 31.1509 34.7545 31.744 34.7335 32.2673C34.7125 32.7907 34.8246 32.8953 34.8246 32.8953H39.6603C39.7791 32.7516 39.8602 32.5807 39.8962 32.398C39.9323 32.2153 39.9222 32.0265 39.8669 31.8487C39.6393 31.3497 39.2716 31.1509 39.6848 30.5089C40.098 29.867 39.958 28.8726 40.4132 27.1002C40.8684 25.3279 41.0294 23.716 41.4847 23.6113C41.9399 23.5067 42.5106 23.7509 43.5366 24.7278C44.5626 25.7047 45.6131 27.498 46.2049 28.2935C46.7966 29.0889 47.5495 29.4064 47.3919 30.4077C47.2343 31.4091 46.9367 32.201 47.0943 32.5011C47.2204 32.7036 47.3918 32.8743 47.595 33L51.9965 30.5229C51.9965 30.5229 51.7234 29.4553 51.1772 29.1273C50.6309 28.7993 50.3088 27.3549 49.8781 27.0165C48.9333 26.1105 48.119 25.0784 47.4584 23.9498C47.1963 23.389 46.8671 22.8618 46.478 22.3797C46.3439 22.194 46.2267 21.9967 46.1278 21.7901C46.1278 21.7901 46.2854 19.4491 45.9913 18.1337C45.6971 16.8184 45.487 16.0857 45.5781 15.1333C45.6691 14.1808 45.9667 13.8598 45.9667 13.8598C45.9667 13.8598 47.6545 15.6322 48.3373 16.0648C49.0202 16.4974 50.9846 17.4604 52.1016 17.0626C53.2186 16.6649 53.7088 16.5393 53.7088 16.5393C53.7088 16.5393 53.9715 16.6335 54.5177 16.316C55.064 15.9985 54.9974 15.6566 54.9974 15.6566C54.9974 15.6566 54.1325 15.3601 53.7088 15.702C53.4755 15.8804 53.265 16.0866 53.0821 16.316C53.0821 16.316 51.5518 16.6963 50.9391 16.5393C50.3263 16.3823 48.4284 15.6113 47.7001 14.5436C46.9717 13.476 46.2399 12.5899 46.2399 12.5899C45.6658 10.5167 44.3936 8.70342 42.6367 7.45418C39.6743 5.31896 37.8045 4.31415 35.4303 4.25135C33.0562 4.18855 32.2404 5.38525 30.8257 5.50039C29.7668 5.53796 28.7074 5.43828 27.6742 5.20383C27.6742 5.20383 28.1084 2.76159 26.9004 2.76159C25.6923 2.76159 25.4997 3.2605 24.3932 3.19421C23.2867 3.12792 23.2062 2.98837 22.8175 3.30586C22.5972 3.46223 22.3628 3.59773 22.1172 3.71057Z" fill="#918F8B"/>
</svg>
