<svg width="93" height="56" viewBox="0 0 93 56" fill="none" xmlns="http://www.w3.org/2000/svg">
<path d="M37.3981 6.29673C37.3981 6.29673 36.7053 3.79232 36.9007 2.74438C37.0961 1.69644 36.2731 -0.144861 35.8942 0.00907416C35.5152 0.163009 35.604 2.01615 35.5212 2.32402C35.4383 2.63189 32.8094 5.79348 32.5607 6.91247C32.312 8.03146 32.1758 8.91955 30.7074 9.07348C29.239 9.22742 26.9536 9.03203 25.6154 11.0746C24.2773 13.1172 23.3832 14.3546 22.4536 15.8585C21.2583 17.6131 20.4805 19.6181 20.18 21.7198C19.8721 24.2657 20.0261 26.8826 17.9064 27.3858C15.7867 27.8891 12.2756 27.9779 10.967 27.3858C9.6585 26.7938 6.56777 23.4546 4.83294 23.4546C3.0981 23.4546 1.94352 23.721 0.942883 24.8814C-0.0577557 26.0419 -0.152491 26.7287 0.155398 26.6931C0.463287 26.6576 1.04354 26.6162 1.04354 26.6162C1.04354 26.6162 0.966567 27.6582 1.50537 27.8003C2.04418 27.9424 2.38759 27.4391 3.12179 26.705C3.85598 25.9708 4.6257 25.6629 5.43687 27.0898C6.24804 28.5167 6.7454 30.7902 9.64074 31.4474C12.5361 32.1045 14.3064 32.6019 13.7854 32.8742C13.2644 33.1466 11.3578 32.9097 12.0091 33.336C12.6604 33.7623 15.6386 34.1057 18.2557 33.336C20.8728 32.5663 22.6135 31.7138 23.2707 31.098C23.928 30.4823 24.7332 29.0554 24.8931 29.4048C25.0529 29.7541 24.9286 30.2869 26.1246 28.9015C27.3207 27.5161 29.5528 25.0472 31.56 25.3906C33.5672 25.734 35.3791 26.2787 36.8889 27.9364C38.3987 29.5942 38.3928 30.7132 38.8132 31.252C39.2336 31.7907 39.8198 33.6202 38.3158 36.1897C36.8119 38.7593 34.8462 42.4715 34.112 45.0706C33.3778 47.6697 33.9166 48.4631 32.5311 49.3867C31.1456 50.3103 29.8726 51.0859 29.7956 51.6247C29.7186 52.1635 29.9496 52.2168 29.9496 52.2168L36.9244 54.3778C37.2174 54.2063 37.4472 53.9449 37.5795 53.6323C37.7118 53.3197 37.7395 52.9727 37.6586 52.643C37.3862 51.4589 37.5047 49.7538 38.1204 49.0552C38.8554 48.0882 39.4532 47.0242 39.8967 45.8936C40.0507 45.3548 42.7861 42.0037 42.7861 42.0037C43.7836 43.9195 44.4768 45.9789 44.8407 48.1079C45.267 51.151 45.4328 51.8082 44.6098 52.6549C43.7868 53.5015 42.875 53.4305 42.8335 54.431C42.793 54.6687 42.8066 54.9123 42.8732 55.144C42.9399 55.3756 43.0578 55.5893 43.2184 55.7691H51.3182C51.3182 55.7691 51.3952 53.5844 50.9334 52.5779C50.4715 51.5714 49.1215 42.5958 48.9321 41.0032C48.7426 39.4105 48.1979 38.0429 48.34 37.3798C48.4821 36.7167 49.0387 35.0115 49.0387 35.0115C49.0387 35.0115 52.5912 37.7528 56.1438 37.9067C58.487 37.9849 60.8327 37.8819 63.1601 37.5988C63.1601 37.5988 64.0127 41.5301 63.1601 44.2654C62.3075 47.0007 62.568 49.2387 61.4667 51.0504C60.3654 52.8621 58.7668 53.8686 58.7312 54.7567C58.6957 55.6448 58.8852 55.8224 58.8852 55.8224H67.062C67.2629 55.5785 67.3999 55.2884 67.4609 54.9784C67.5219 54.6684 67.5049 54.348 67.4113 54.0462C67.0265 53.1996 66.4048 52.8621 67.1034 51.7727C67.8021 50.6833 67.5653 48.996 68.335 45.9883C69.1047 42.9806 69.3771 40.2453 70.1468 40.0677C70.9165 39.8901 71.8816 40.3045 73.6165 41.9623C75.3513 43.6201 77.1276 46.6632 78.1282 48.0131C79.1288 49.363 80.4018 49.9018 80.1354 51.601C79.869 53.3002 79.3657 54.6442 79.6321 55.1534C79.8455 55.4969 80.1352 55.7867 80.4788 56L87.9214 51.7964C87.9214 51.7964 87.4596 49.9847 86.5359 49.4282C85.6123 48.8716 85.0675 46.4205 84.3393 45.8462C82.7418 44.3087 81.3649 42.5573 80.2479 40.642C79.8047 39.6904 79.248 38.7958 78.59 37.9778C78.3632 37.6625 78.1651 37.3277 77.9979 36.9772C77.9979 36.9772 78.2644 33.0045 77.767 30.7724C77.2697 28.5403 76.9144 27.297 77.0684 25.6807C77.2223 24.0644 77.7256 23.5197 77.7256 23.5197C77.7256 23.5197 80.5795 26.5273 81.7341 27.2615C82.8886 27.9957 86.2103 29.6297 88.0991 28.9548C89.9878 28.2798 90.8168 28.0667 90.8168 28.0667C90.8168 28.0667 91.2608 28.2266 92.1845 27.6878C93.1082 27.149 92.9957 26.5688 92.9957 26.5688C92.9957 26.5688 91.5332 26.0655 90.8168 26.6458C90.4222 26.9485 90.0663 27.2985 89.7569 27.6878C89.7569 27.6878 87.1695 28.3331 86.1333 28.0667C85.0972 27.8003 81.888 26.4918 80.6564 24.6801C79.4249 22.8684 78.1874 21.3646 78.1874 21.3646C77.2168 17.8466 75.0656 14.7694 72.0948 12.6495C67.0857 9.02612 63.9239 7.32099 59.9095 7.21442C55.8951 7.10785 54.5155 9.13861 52.1235 9.33399C50.3329 9.39776 48.5416 9.22859 46.7946 8.83074C46.7946 8.83074 47.5288 4.68633 45.4861 4.68633C43.4434 4.68633 43.1177 5.53298 41.2467 5.42048C39.3757 5.30799 39.2395 5.07117 38.5823 5.60994C38.2098 5.87531 37.8134 6.10524 37.3981 6.29673Z" fill="#918F8B"/>
</svg>
