<svg width="10" height="17" viewBox="0 0 10 17" fill="none" xmlns="http://www.w3.org/2000/svg">
<path d="M6.73536 0.578125C5.63527 0.578125 4.58024 1.01513 3.80236 1.79301C3.02449 2.57089 2.58748 3.62592 2.58748 4.726V7.03536H0.367804C0.256359 7.03536 0.166016 7.12571 0.166016 7.23715V10.2864C0.166016 10.3978 0.256359 10.4882 0.367804 10.4882H2.58748V16.7436C2.58748 16.8551 2.67782 16.9454 2.78927 16.9454H5.83852C5.94996 16.9454 6.04031 16.8551 6.04031 16.7436V10.4882H8.27964C8.37224 10.4882 8.45295 10.4252 8.47541 10.3353L9.23772 7.28609C9.26956 7.15873 9.17323 7.03536 9.04195 7.03536H6.04031V4.726C6.04031 4.54166 6.11353 4.36488 6.24388 4.23453C6.37423 4.10418 6.55102 4.03095 6.73536 4.03095H9.06713C9.17858 4.03095 9.26892 3.94061 9.26892 3.82916V0.779914C9.26892 0.668469 9.17858 0.578125 9.06713 0.578125H6.73536Z" fill="#9EB279"/>
</svg>
