<svg width="11" height="21" viewBox="0 0 11 21" fill="none" xmlns="http://www.w3.org/2000/svg">
<path d="M7.79183 0.994629C6.51409 0.994629 5.28869 1.50221 4.38519 2.4057C3.4817 3.3092 2.97412 4.5346 2.97412 5.81234V8.49463H0.395996C0.266554 8.49463 0.161621 8.59956 0.161621 8.729V12.2707C0.161621 12.4001 0.266554 12.505 0.395996 12.505H2.97412V19.7707C2.97412 19.9001 3.07905 20.005 3.2085 20.005H6.75016C6.8796 20.005 6.98454 19.9001 6.98454 19.7707V12.505H9.5855C9.69305 12.505 9.78679 12.4319 9.81288 12.3275L10.6983 8.78585C10.7353 8.63792 10.6234 8.49463 10.4709 8.49463H6.98454V5.81234C6.98454 5.59823 7.06959 5.39289 7.22099 5.2415C7.37238 5.0901 7.57772 5.00505 7.79183 5.00505H10.5002C10.6296 5.00505 10.7345 4.90011 10.7345 4.77067V1.229C10.7345 1.09956 10.6296 0.994629 10.5002 0.994629H7.79183Z" fill="white"/>
</svg>
