<svg width="94" height="57" viewBox="0 0 94 57" fill="none" xmlns="http://www.w3.org/2000/svg">
<path d="M55.6112 7.16929C55.6112 7.16929 56.3039 4.66488 56.1086 3.61694C55.9132 2.569 56.7362 0.727698 57.1151 0.881633C57.494 1.03557 57.4052 2.88871 57.4881 3.19658C57.571 3.50445 60.1999 6.66604 60.4486 7.78503C60.6973 8.90402 60.8335 9.7921 62.3018 9.94604C63.7702 10.1 66.0557 9.90459 67.3939 11.9472C68.732 13.9898 69.626 15.2272 70.5556 16.731C71.751 18.4857 72.5287 20.4907 72.8293 22.5924C73.1372 25.1382 72.9832 27.7551 75.1029 28.2584C77.2226 28.7616 80.7337 28.8505 82.0422 28.2584C83.3508 27.6663 86.4415 24.3271 88.1763 24.3271C89.9112 24.3271 91.0658 24.5936 92.0664 25.754C93.067 26.9144 93.1618 27.6012 92.8539 27.5657C92.546 27.5302 91.9657 27.4887 91.9657 27.4887C91.9657 27.4887 92.0427 28.5307 91.5039 28.6728C90.9651 28.8149 90.6217 28.3117 89.8875 27.5775C89.1533 26.8434 88.3836 26.5355 87.5724 27.9624C86.7612 29.3892 86.2639 31.6627 83.3685 32.3199C80.4732 32.9771 78.7028 33.4744 79.2239 33.7468C79.7449 34.0191 81.6515 33.7823 81.0002 34.2086C80.3489 34.6349 77.3706 34.9783 74.7536 34.2086C72.1365 33.4389 70.3958 32.5863 69.7385 31.9706C69.0813 31.3549 68.2761 29.928 68.1162 30.2773C67.9563 30.6266 68.0807 31.1595 66.8847 29.7741C65.6886 28.3886 63.4564 25.9198 61.4492 26.2632C59.442 26.6066 57.6302 27.1512 56.1204 28.809C54.6105 30.4668 54.6165 31.5858 54.1961 32.1245C53.7757 32.6633 53.1895 34.4928 54.6934 37.0623C56.1974 39.6318 58.1631 43.344 58.8973 45.9432C59.6315 48.5423 59.0927 49.3357 60.4782 50.2593C61.8637 51.1829 63.1367 51.9585 63.2137 52.4972C63.2906 53.036 63.0597 53.0893 63.0597 53.0893L56.0849 55.2503C55.7919 55.0789 55.5621 54.8174 55.4298 54.5048C55.2975 54.1922 55.2697 53.8452 55.3507 53.5156C55.623 52.3315 55.5046 50.6264 54.8888 49.9277C54.1539 48.9607 53.5561 47.8968 53.1125 46.7661C52.9586 46.2274 50.2231 42.8763 50.2231 42.8763C49.2257 44.7921 48.5325 46.8514 48.1686 48.9804C47.7423 52.0236 47.5765 52.6808 48.3995 53.5274C49.2225 54.3741 50.1343 54.303 50.1758 55.3036C50.2162 55.5412 50.2027 55.7849 50.136 56.0165C50.0694 56.2482 49.9514 56.4619 49.7909 56.6417H41.6911C41.6911 56.6417 41.6141 54.457 42.0759 53.4505C42.5378 52.444 43.8877 43.4684 44.0772 41.8757C44.2667 40.2831 44.8114 38.9154 44.6693 38.2523C44.5272 37.5892 43.9706 35.8841 43.9706 35.8841C43.9706 35.8841 40.4181 38.6253 36.8655 38.7793C34.5223 38.8574 32.1765 38.7545 29.8492 38.4714C29.8492 38.4714 28.9966 42.4027 29.8492 45.138C30.7018 47.8733 30.4413 50.1113 31.5426 51.923C32.6439 53.7346 34.2425 54.7411 34.2781 55.6292C34.3136 56.5173 34.1241 56.6949 34.1241 56.6949H25.9473C25.7464 56.451 25.6093 56.161 25.5484 55.851C25.4874 55.5409 25.5044 55.2206 25.598 54.9188C25.9828 54.0721 26.6045 53.7346 25.9058 52.6453C25.2072 51.5559 25.444 49.8685 24.6743 46.8609C23.9046 43.8532 23.6322 41.1179 22.8625 40.9403C22.0928 40.7627 21.1277 41.1771 19.3928 42.8349C17.658 44.4926 15.8817 47.5358 14.8811 48.8857C13.8804 50.2356 12.6074 50.7744 12.8739 52.4736C13.1403 54.1728 13.6436 55.5167 13.3772 56.0259C13.1638 56.3695 12.8741 56.6592 12.5305 56.8726L5.08784 52.6689C5.08784 52.6689 5.54967 50.8572 6.47334 50.3007C7.397 49.7442 7.94173 47.2931 8.67001 46.7188C10.2675 45.1812 11.6444 43.4298 12.7614 41.5146C13.2046 40.5629 13.7613 39.6684 14.4192 38.8503C14.646 38.5351 14.8442 38.2002 15.0113 37.8497C15.0113 37.8497 14.7449 33.877 15.2422 31.645C15.7396 29.4129 16.0949 28.1696 15.9409 26.5533C15.787 24.9369 15.2837 24.3923 15.2837 24.3923C15.2837 24.3923 12.4298 27.3999 11.2752 28.1341C10.1206 28.8682 6.79899 30.5023 4.91021 29.8273C3.02143 29.1524 2.1925 28.9393 2.1925 28.9393C2.1925 28.9393 1.74844 29.0991 0.824768 28.5603C-0.0988922 28.0216 0.0135956 27.4414 0.0135956 27.4414C0.0135956 27.4414 1.47607 26.9381 2.1925 27.5183C2.58704 27.8211 2.94296 28.171 3.25235 28.5603C3.25235 28.5603 5.8398 29.2057 6.87596 28.9393C7.91212 28.6728 11.1213 27.3644 12.3528 25.5527C13.5844 23.741 14.8219 22.2372 14.8219 22.2372C15.7925 18.7191 17.9437 15.642 20.9145 13.5221C25.9236 9.89867 29.0854 8.19355 33.0998 8.08698C37.1142 7.98041 38.4938 10.0112 40.8858 10.2065C42.6764 10.2703 44.4677 10.1012 46.2147 9.7033C46.2147 9.7033 45.4805 5.55889 47.5232 5.55889C49.5659 5.55889 49.8916 6.40553 51.7626 6.29304C53.6336 6.18055 53.7698 5.94373 54.427 6.4825C54.7994 6.74787 55.1959 6.9778 55.6112 7.16929Z" fill="#71706D"/>
</svg>
