<svg width="157" height="95" viewBox="0 0 157 95" fill="none" xmlns="http://www.w3.org/2000/svg">
<path d="M93.9246 10.6683C93.9246 10.6683 95.09 6.4553 94.7613 4.69241C94.4326 2.92951 95.8171 -0.168008 96.4546 0.0909486C97.092 0.349905 96.9426 3.46734 97.0821 3.98526C97.2215 4.50317 101.644 9.82174 102.062 11.7042C102.481 13.5866 102.71 15.0806 105.18 15.3395C107.65 15.5985 111.495 15.2698 113.746 18.7059C115.997 22.1421 117.501 24.2237 119.065 26.7535C121.076 29.7053 122.384 33.0782 122.89 36.6138C123.408 40.8965 123.149 45.2988 126.714 46.1454C130.28 46.992 136.187 47.1414 138.388 46.1454C140.589 45.1494 145.789 39.5321 148.707 39.5321C151.626 39.5321 153.568 39.9803 155.251 41.9324C156.935 43.8845 157.094 45.0399 156.576 44.9801C156.058 44.9203 155.082 44.8506 155.082 44.8506C155.082 44.8506 155.211 46.6036 154.305 46.8426C153.399 47.0816 152.821 46.2351 151.586 45C150.351 43.765 149.056 43.2471 147.691 45.6474C146.327 48.0477 145.49 51.8723 140.619 52.9779C135.749 54.0834 132.77 54.9201 133.647 55.3782C134.523 55.8364 137.731 55.438 136.635 56.1551C135.539 56.8722 130.529 57.4499 126.127 56.1551C121.724 54.8603 118.796 53.4261 117.69 52.3903C116.585 51.3544 115.23 48.9541 114.961 49.5417C114.692 50.1294 114.901 51.0257 112.889 48.6951C110.877 46.3645 107.122 42.2113 103.746 42.7889C100.369 43.3666 97.3211 44.2829 94.7812 47.0717C92.2413 49.8604 92.2512 51.7429 91.544 52.6492C90.8369 53.5556 89.8508 56.6332 92.3807 60.9557C94.9107 65.2783 98.2176 71.5232 99.4527 75.8955C100.688 80.2679 99.7814 81.6026 102.112 83.1563C104.443 84.71 106.584 86.0148 106.714 86.9211C106.843 87.8275 106.455 87.9171 106.455 87.9171L94.7214 91.5525C94.2286 91.2641 93.842 90.8242 93.6195 90.2984C93.3969 89.7725 93.3502 89.1888 93.4863 88.6342C93.9445 86.6423 93.7453 83.7738 92.7094 82.5986C91.473 80.9718 90.4675 79.182 89.7213 77.28C89.4623 76.3736 84.8606 70.7363 84.8606 70.7363C83.1826 73.9591 82.0165 77.4235 81.4043 81.005C80.6871 86.1243 80.4082 87.2299 81.7927 88.6541C83.1772 90.0784 84.7112 89.9589 84.7809 91.6421C84.849 92.0418 84.8261 92.4518 84.7141 92.8415C84.602 93.2311 84.4035 93.5906 84.1335 93.8931H70.5075C70.5075 93.8931 70.378 90.2179 71.155 88.5247C71.9319 86.8315 74.2029 71.7323 74.5216 69.0531C74.8403 66.3739 75.7567 64.0732 75.5176 62.9577C75.2786 61.8422 74.3423 58.9737 74.3423 58.9737C74.3423 58.9737 68.366 63.5852 62.3897 63.8441C58.4479 63.9756 54.5018 63.8024 50.5866 63.3262C50.5866 63.3262 49.1523 69.9395 50.5866 74.541C52.0209 79.1425 51.5826 82.9073 53.4353 85.955C55.2879 89.0028 57.9772 90.6959 58.037 92.1899C58.0968 93.6839 57.778 93.9827 57.778 93.9827H44.0226C43.6847 93.5723 43.4541 93.0845 43.3515 92.5629C43.2489 92.0413 43.2776 91.5025 43.435 90.9947C44.0824 89.5705 45.1282 89.0028 43.9529 87.1701C42.7776 85.3375 43.176 82.4989 41.8811 77.4393C40.5863 72.3797 40.1281 67.7783 38.8332 67.4795C37.5384 67.1807 35.9148 67.8779 32.9964 70.6666C30.078 73.4554 27.0898 78.5748 25.4065 80.8456C23.7232 83.1165 21.5817 84.0228 22.0299 86.8813C22.4781 89.7398 23.3248 92.0007 22.8766 92.8572C22.5177 93.4352 22.0302 93.9226 21.4522 94.2815L8.93188 87.21C8.93188 87.21 9.7088 84.1622 11.2626 83.226C12.8165 82.2898 13.7328 78.1664 14.958 77.2003C17.6454 74.6138 19.9616 71.6675 21.8407 68.4456C22.5863 66.8447 23.5227 65.3398 24.6296 63.9636C25.0111 63.4334 25.3445 62.87 25.6256 62.2804C25.6256 62.2804 25.1774 55.5973 26.0141 51.8425C26.8508 48.0876 27.4484 45.996 27.1894 43.277C26.9305 40.5579 26.0838 39.6416 26.0838 39.6416C26.0838 39.6416 21.2829 44.7012 19.3406 45.9362C17.3983 47.1713 11.8105 49.9202 8.63307 48.7848C5.45569 47.6493 4.06122 47.2908 4.06122 47.2908C4.06122 47.2908 3.31418 47.5597 1.76035 46.6534C0.206512 45.747 0.395752 44.7709 0.395752 44.7709C0.395752 44.7709 2.856 43.9244 4.06122 44.9004C4.72491 45.4097 5.32367 45.9984 5.84413 46.6534C5.84413 46.6534 10.1969 47.739 11.9399 47.2908C13.683 46.8426 19.0816 44.6415 21.1534 41.5937C23.2252 38.546 25.3069 36.0162 25.3069 36.0162C26.9398 30.098 30.5586 24.9215 35.5562 21.3553C43.9828 15.2598 49.3017 12.3914 56.0549 12.2121C62.8081 12.0328 65.1289 15.4491 69.1529 15.7778C72.1651 15.885 75.1785 15.6005 78.1173 14.9312C78.1173 14.9312 76.8822 7.95925 80.3186 7.95925C83.755 7.95925 84.3028 9.38351 87.4503 9.19427C90.5978 9.00504 90.8269 8.60664 91.9325 9.51299C92.559 9.9594 93.226 10.3462 93.9246 10.6683Z" fill="#D4D3D0"/>
</svg>
