<svg width="157" height="95" viewBox="0 0 157 95" fill="none" xmlns="http://www.w3.org/2000/svg">
<path d="M63.3029 10.6683C63.3029 10.6683 62.1376 6.4553 62.4663 4.69241C62.7949 2.92951 61.4104 -0.168008 60.773 0.0909486C60.1355 0.349905 60.2849 3.46734 60.1455 3.98526C60.006 4.50317 55.5836 9.82174 55.1652 11.7042C54.7469 13.5866 54.5178 15.0806 52.0476 15.3395C49.5774 15.5985 45.7327 15.2698 43.4816 18.7059C41.2305 22.1421 39.7265 24.2237 38.1627 26.7535C36.1518 29.7053 34.8434 33.0782 34.3379 36.6138C33.8199 40.8965 34.0789 45.2988 30.5131 46.1454C26.9472 46.992 21.0406 47.1414 18.8394 46.1454C16.6381 45.1494 11.4387 39.5321 8.52033 39.5321C5.60191 39.5321 3.65962 39.9803 1.9763 41.9324C0.292977 43.8845 0.13361 45.0399 0.651554 44.9801C1.1695 44.9203 2.14563 44.8506 2.14563 44.8506C2.14563 44.8506 2.01614 46.6036 2.92254 46.8426C3.82895 47.0816 4.40665 46.2351 5.64175 45C6.87685 43.765 8.17171 43.2471 9.5363 45.6474C10.9009 48.0477 11.7376 51.8723 16.6082 52.9779C21.4789 54.0834 24.4571 54.9201 23.5806 55.3782C22.704 55.8364 19.4968 55.438 20.5924 56.1551C21.6881 56.8722 26.6982 57.4499 31.1007 56.1551C35.5033 54.8603 38.4316 53.4261 39.5372 52.3903C40.6429 51.3544 41.9975 48.9541 42.2664 49.5417C42.5353 50.1294 42.3262 51.0257 44.3382 48.6951C46.3502 46.3645 50.1053 42.2113 53.4819 42.7889C56.8585 43.3666 59.9064 44.2829 62.4463 47.0717C64.9863 49.8604 64.9763 51.7429 65.6835 52.6492C66.3907 53.5556 67.3768 56.6332 64.8468 60.9557C62.3168 65.2783 59.01 71.5232 57.7749 75.8955C56.5398 80.2679 57.4462 81.6026 55.1154 83.1563C52.7847 84.71 50.6432 86.0148 50.5137 86.9211C50.3842 87.8275 50.7727 87.9171 50.7727 87.9171L62.5061 91.5525C62.999 91.2641 63.3855 90.8242 63.6081 90.2984C63.8306 89.7725 63.8773 89.1888 63.7412 88.6342C63.283 86.6423 63.4822 83.7738 64.5181 82.5986C65.7545 80.9718 66.7601 79.182 67.5063 77.28C67.7652 76.3736 72.367 70.7363 72.367 70.7363C74.045 73.9591 75.211 77.4235 75.8233 81.005C76.5404 86.1243 76.8193 87.2299 75.4348 88.6541C74.0503 90.0784 72.5164 89.9589 72.4467 91.6421C72.3786 92.0418 72.4014 92.4518 72.5135 92.8415C72.6256 93.2311 72.824 93.5906 73.0941 93.8931H86.72C86.72 93.8931 86.8495 90.2179 86.0726 88.5247C85.2957 86.8315 83.0247 71.7323 82.7059 69.0531C82.3872 66.3739 81.4708 64.0732 81.7099 62.9577C81.9489 61.8422 82.8852 58.9737 82.8852 58.9737C82.8852 58.9737 88.8615 63.5852 94.8378 63.8441C98.7796 63.9756 102.726 63.8024 106.641 63.3262C106.641 63.3262 108.075 69.9395 106.641 74.541C105.207 79.1425 105.645 82.9073 103.792 85.955C101.94 89.0028 99.2503 90.6959 99.1905 92.1899C99.1308 93.6839 99.4495 93.9827 99.4495 93.9827H113.205C113.543 93.5723 113.773 93.0845 113.876 92.5629C113.979 92.0413 113.95 91.5025 113.793 90.9947C113.145 89.5705 112.099 89.0028 113.275 87.1701C114.45 85.3375 114.052 82.4989 115.346 77.4393C116.641 72.3797 117.099 67.7783 118.394 67.4795C119.689 67.1807 121.313 67.8779 124.231 70.6666C127.15 73.4554 130.138 78.5748 131.821 80.8456C133.504 83.1165 135.646 84.0228 135.198 86.8813C134.749 89.7398 133.903 92.0007 134.351 92.8572C134.71 93.4352 135.197 93.9226 135.775 94.2815L148.296 87.21C148.296 87.21 147.519 84.1622 145.965 83.226C144.411 82.2898 143.495 78.1664 142.27 77.2003C139.582 74.6138 137.266 71.6675 135.387 68.4456C134.641 66.8447 133.705 65.3398 132.598 63.9636C132.216 63.4334 131.883 62.87 131.602 62.2804C131.602 62.2804 132.05 55.5973 131.213 51.8425C130.377 48.0876 129.779 45.996 130.038 43.277C130.297 40.5579 131.144 39.6416 131.144 39.6416C131.144 39.6416 135.945 44.7012 137.887 45.9362C139.829 47.1713 145.417 49.9202 148.594 48.7848C151.772 47.6493 153.166 47.2908 153.166 47.2908C153.166 47.2908 153.913 47.5597 155.467 46.6534C157.021 45.747 156.832 44.7709 156.832 44.7709C156.832 44.7709 154.372 43.9244 153.166 44.9004C152.503 45.4097 151.904 45.9984 151.383 46.6534C151.383 46.6534 147.031 47.739 145.288 47.2908C143.545 46.8426 138.146 44.6415 136.074 41.5937C134.002 38.546 131.921 36.0162 131.921 36.0162C130.288 30.098 126.669 24.9215 121.671 21.3553C113.245 15.2598 107.926 12.3914 101.173 12.2121C94.4195 12.0328 92.0987 15.4491 88.0746 15.7778C85.0624 15.885 82.0491 15.6005 79.1102 14.9312C79.1102 14.9312 80.3453 7.95925 76.9089 7.95925C73.4726 7.95925 72.9248 9.38351 69.7772 9.19427C66.6297 9.00504 66.4007 8.60664 65.295 9.51299C64.6685 9.9594 64.0016 10.3462 63.3029 10.6683Z" fill="#D4D3D0"/>
</svg>
