<svg width="17" height="18" viewBox="0 0 17 18" fill="none" xmlns="http://www.w3.org/2000/svg">
<path d="M8.37955 5.84737C6.76979 5.84737 5.46482 7.15233 5.46482 8.76209C5.46482 10.3718 6.76979 11.6768 8.37955 11.6768C9.98931 11.6768 11.2943 10.3718 11.2943 8.76209C11.2943 7.15233 9.98931 5.84737 8.37955 5.84737Z" fill="#9EB279"/>
<path fill-rule="evenodd" clip-rule="evenodd" d="M3.68867 0.763611C6.78108 0.417989 9.97804 0.417989 13.0704 0.763611C14.773 0.953897 16.1462 2.29537 16.3461 4.00389C16.7158 7.16525 16.7158 10.3589 16.3461 13.5203C16.1462 15.2288 14.773 16.5703 13.0704 16.7606C9.97804 17.1062 6.78108 17.1062 3.68867 16.7606C1.98611 16.5703 0.612882 15.2288 0.413054 13.5203C0.0433048 10.3589 0.0433048 7.16525 0.413054 4.00389C0.612882 2.29537 1.98611 0.953897 3.68867 0.763611ZM12.8637 3.38106C12.3684 3.38106 11.9669 3.78259 11.9669 4.2779C11.9669 4.77321 12.3684 5.17474 12.8637 5.17474C13.359 5.17474 13.7606 4.77321 13.7606 4.2779C13.7606 3.78259 13.359 3.38106 12.8637 3.38106ZM4.11957 8.76209C4.11957 6.40937 6.02683 4.50211 8.37955 4.50211C10.7323 4.50211 12.6395 6.40937 12.6395 8.76209C12.6395 11.1148 10.7323 13.0221 8.37955 13.0221C6.02683 13.0221 4.11957 11.1148 4.11957 8.76209Z" fill="#9EB279"/>
</svg>
