<svg width="47" height="47" viewBox="0 0 47 47" fill="none" xmlns="http://www.w3.org/2000/svg">
<path d="M23.5005 15.5104C19.088 15.5104 15.5109 19.0875 15.5109 23.5C15.5109 27.9125 19.088 31.4896 23.5005 31.4896C27.913 31.4896 31.4901 27.9125 31.4901 23.5C31.4901 19.0875 27.913 15.5104 23.5005 15.5104Z" fill="#9EB279"/>
<path fill-rule="evenodd" clip-rule="evenodd" d="M10.6423 1.57529C19.1189 0.627899 27.8822 0.627899 36.3588 1.57529C41.0257 2.09688 44.7899 5.774 45.3376 10.4573C46.3511 19.1229 46.3511 27.8771 45.3376 36.5428C44.7899 41.226 41.0257 44.9031 36.3588 45.4247C27.8822 46.3721 19.1189 46.3721 10.6423 45.4247C5.9754 44.9031 2.21121 41.226 1.66346 36.5428C0.649939 27.8771 0.649939 19.1229 1.66346 10.4573C2.21121 5.774 5.9754 2.09688 10.6423 1.57529ZM35.7922 8.75001C34.4345 8.75001 33.3338 9.85064 33.3338 11.2083C33.3338 12.566 34.4345 13.6667 35.7922 13.6667C37.1499 13.6667 38.2505 12.566 38.2505 11.2083C38.2505 9.85064 37.1499 8.75001 35.7922 8.75001ZM11.8234 23.5C11.8234 17.0509 17.0514 11.8229 23.5005 11.8229C29.9496 11.8229 35.1776 17.0509 35.1776 23.5C35.1776 29.9491 29.9496 35.1771 23.5005 35.1771C17.0514 35.1771 11.8234 29.9491 11.8234 23.5Z" fill="#9EB279"/>
</svg>
