<svg width="20" height="21" viewBox="0 0 20 21" fill="none" xmlns="http://www.w3.org/2000/svg">
<path d="M10.3842 7.11473C8.51445 7.11473 6.99875 8.63044 6.99875 10.5001C6.99875 12.3699 8.51445 13.8856 10.3842 13.8856C12.2539 13.8856 13.7696 12.3699 13.7696 10.5001C13.7696 8.63044 12.2539 7.11473 10.3842 7.11473Z" fill="white"/>
<path fill-rule="evenodd" clip-rule="evenodd" d="M4.93576 1.21001C8.52756 0.808577 12.2408 0.808577 15.8326 1.21001C17.8101 1.43103 19.4051 2.98913 19.6372 4.97356C20.0666 8.64544 20.0666 12.3549 19.6372 16.0267C19.4051 18.0112 17.8101 19.5693 15.8326 19.7903C12.2408 20.1917 8.52756 20.1917 4.93576 19.7903C2.95827 19.5693 1.36327 18.0112 1.13118 16.0267C0.701717 12.3549 0.701717 8.64544 1.13118 4.97356C1.36327 2.98913 2.95827 1.43103 4.93576 1.21001ZM15.5925 4.25015C15.0172 4.25015 14.5508 4.71652 14.5508 5.29182C14.5508 5.86711 15.0172 6.33348 15.5925 6.33348C16.1678 6.33348 16.6342 5.86711 16.6342 5.29182C16.6342 4.71652 16.1678 4.25015 15.5925 4.25015ZM5.43625 10.5001C5.43625 7.76749 7.6515 5.55223 10.3842 5.55223C13.1168 5.55223 15.3321 7.76749 15.3321 10.5001C15.3321 13.2328 13.1168 15.4481 10.3842 15.4481C7.6515 15.4481 5.43625 13.2328 5.43625 10.5001Z" fill="white"/>
</svg>
