<svg width="15" height="13" viewBox="0 0 15 13" fill="none" xmlns="http://www.w3.org/2000/svg">
<path d="M8.00016 11.7311C7.65498 11.7311 7.37516 12.0109 7.37516 12.3561C7.37516 12.7013 7.65498 12.9811 8.00016 12.9811H13.0002C13.8056 12.9811 14.4585 12.3282 14.4585 11.5228V1.52279C14.4585 0.717372 13.8056 0.0644531 13.0002 0.0644531H8.00016C7.65498 0.0644531 7.37516 0.344276 7.37516 0.689454C7.37516 1.03463 7.65498 1.31445 8.00016 1.31445L13.0002 1.31445C13.1152 1.31445 13.2085 1.40773 13.2085 1.52279L13.2085 11.5228C13.2085 11.6378 13.1152 11.7311 13.0002 11.7311H8.00016Z" fill="#222222"/>
<path fill-rule="evenodd" clip-rule="evenodd" d="M0.708496 7.45214C0.708496 8.02743 1.17487 8.4938 1.75016 8.4938H5.59399C5.59943 8.55499 5.60512 8.61616 5.61106 8.67731L5.65609 9.14054C5.72478 9.8473 6.47528 10.2706 7.11563 9.96368C8.47749 9.31102 9.79302 8.33158 10.8376 7.24095C11.2244 6.83706 11.2244 6.20011 10.8376 5.79621L10.7549 5.7099C9.71035 4.61927 8.47749 3.72615 7.11563 3.07349C6.47528 2.7666 5.72478 3.18986 5.65609 3.89662L5.61107 4.35986C5.60512 4.42101 5.59943 4.48218 5.59399 4.54337L1.75016 4.54337C1.17487 4.54337 0.708496 5.00974 0.708496 5.58504V7.45214ZM6.7945 7.79836C6.75909 7.48423 6.49293 7.2438 6.17347 7.2438H1.9585L1.9585 5.79337H6.17347C6.50354 5.79337 6.77671 5.53671 6.79726 5.20728C6.81238 4.96488 6.83169 4.72267 6.8552 4.48078L6.86827 4.34632C7.95563 4.9067 8.9453 5.6402 9.79825 6.51858C9.44212 6.88533 9.06215 7.22682 8.66119 7.541C8.10184 7.9793 7.50163 8.36444 6.86827 8.69084L6.8552 8.55639C6.83169 8.31449 6.81238 8.07229 6.79726 7.8299C6.7966 7.81931 6.79568 7.80879 6.7945 7.79836Z" fill="#222222"/>
</svg>
