<svg width="10" height="9" viewBox="0 0 10 9" fill="none" xmlns="http://www.w3.org/2000/svg">
<path d="M5.49984 7.88558C5.27547 7.88558 5.09359 8.06746 5.09359 8.29183C5.09359 8.5162 5.27547 8.69808 5.49984 8.69808H8.74984C9.27336 8.69808 9.69775 8.27368 9.69775 7.75016V1.25016C9.69775 0.726643 9.27336 0.302246 8.74984 0.302246H5.49984C5.27547 0.302246 5.09359 0.484131 5.09359 0.708497C5.09359 0.932862 5.27547 1.11475 5.49984 1.11475L8.74984 1.11475C8.82462 1.11475 8.88525 1.17537 8.88525 1.25016L8.88525 7.75016C8.88525 7.82495 8.82463 7.88558 8.74984 7.88558H5.49984Z" fill="white"/>
<path fill-rule="evenodd" clip-rule="evenodd" d="M0.760254 5.10424C0.760254 5.47818 1.06339 5.78132 1.43734 5.78132H3.93583C3.93936 5.82109 3.94306 5.86085 3.94692 5.9006L3.97619 6.2017C4.02084 6.6611 4.50867 6.93622 4.92489 6.73674C5.8101 6.31251 6.66519 5.67588 7.34417 4.96697C7.59562 4.70444 7.59562 4.29042 7.34417 4.02789L7.29044 3.97179C6.61146 3.26288 5.8101 2.68235 4.92489 2.25812C4.50866 2.05864 4.02084 2.33376 3.97619 2.79316L3.94692 3.09426C3.94306 3.13401 3.93936 3.17377 3.93583 3.21354L1.43734 3.21354C1.06339 3.21354 0.760254 3.51668 0.760254 3.89063V5.10424ZM4.71616 5.32928C4.69314 5.1251 4.52014 4.96882 4.31249 4.96882H1.57275L1.57275 4.02604H4.31249C4.52703 4.02604 4.70459 3.85921 4.71795 3.64508C4.72778 3.48752 4.74033 3.33009 4.75561 3.17286L4.76411 3.08546C5.47089 3.4497 6.11417 3.92648 6.66859 4.49743C6.43711 4.73582 6.19013 4.95779 5.92951 5.162C5.56593 5.4469 5.17579 5.69724 4.76411 5.9094L4.75561 5.822C4.74033 5.66477 4.72778 5.50734 4.71795 5.34978C4.71752 5.3429 4.71692 5.33607 4.71616 5.32928Z" fill="white"/>
</svg>
