<svg width="31" height="31" viewBox="0 0 31 31" fill="none" xmlns="http://www.w3.org/2000/svg">
<path fill-rule="evenodd" clip-rule="evenodd" d="M9.49268 15.648C9.49268 15.5366 9.53676 15.4297 9.61524 15.3509C9.69372 15.2721 9.80016 15.2278 9.91114 15.2278L19.781 15.2278L17.1472 12.5839C17.0686 12.505 17.0245 12.398 17.0245 12.2864C17.0245 12.1749 17.0686 12.0679 17.1472 11.9889C17.2258 11.91 17.3323 11.8657 17.4435 11.8657C17.5546 11.8657 17.6612 11.91 17.7397 11.9889L21.0874 15.3505C21.1264 15.3896 21.1573 15.4359 21.1784 15.487C21.1995 15.538 21.2104 15.5927 21.2104 15.648C21.2104 15.7033 21.1995 15.758 21.1784 15.8091C21.1573 15.8601 21.1264 15.9065 21.0874 15.9455L17.7397 19.3071C17.6612 19.386 17.5546 19.4303 17.4435 19.4303C17.3323 19.4303 17.2258 19.386 17.1472 19.3071C17.0686 19.2282 17.0245 19.1212 17.0245 19.0096C17.0245 18.898 17.0686 18.791 17.1472 18.7121L19.781 16.0682L9.91114 16.0682C9.80016 16.0682 9.69372 16.0239 9.61524 15.9451C9.53676 15.8663 9.49268 15.7595 9.49268 15.648Z" fill="#918F8B"/>
<circle opacity="0.8" cx="15.5" cy="15.5" r="15" stroke="#918F8B"/>
</svg>
