<svg width="138" height="84" viewBox="0 0 138 84" fill="none" xmlns="http://www.w3.org/2000/svg">
<path d="M55.3487 9.92892C55.3487 9.92892 54.3295 6.24419 54.617 4.70236C54.9045 3.16052 53.6936 0.451417 53.136 0.677902C52.5785 0.904386 52.7092 3.63091 52.5872 4.08388C52.4652 4.53685 48.5974 9.18849 48.2315 10.8349C47.8656 12.4812 47.6652 13.7879 45.5048 14.0144C43.3443 14.2408 39.9817 13.9534 38.0129 16.9587C36.0441 19.9639 34.7287 21.7845 33.361 23.9971C31.6022 26.5787 30.4579 29.5287 30.0158 32.6209C29.5628 36.3666 29.7893 40.2169 26.6706 40.9573C23.5519 41.6978 18.386 41.8284 16.4607 40.9573C14.5355 40.0862 9.98811 35.1733 7.43565 35.1733C4.88319 35.1733 3.18445 35.5653 1.71221 37.2726C0.239975 38.9799 0.100592 39.9904 0.553588 39.9381C1.00658 39.8859 1.86031 39.8249 1.86031 39.8249C1.86031 39.8249 1.74706 41.358 2.5398 41.5671C3.33255 41.7761 3.83781 41.0357 4.91804 39.9556C5.99826 38.8754 7.13075 38.4224 8.32422 40.5218C9.51769 42.6211 10.2495 45.9661 14.5094 46.933C18.7693 47.8999 21.374 48.6317 20.6074 49.0324C19.8408 49.4331 17.0357 49.0846 17.994 49.7118C18.9522 50.339 23.3341 50.8442 27.1846 49.7118C31.035 48.5794 33.5962 47.325 34.5632 46.4191C35.5301 45.5132 36.7149 43.4138 36.9501 43.9278C37.1853 44.4417 37.0024 45.2257 38.7621 43.1873C40.5218 41.149 43.806 37.5165 46.7592 38.0217C49.7124 38.527 52.3781 39.3284 54.5996 41.7674C56.821 44.2065 56.8123 45.8529 57.4308 46.6456C58.0493 47.4383 58.9117 50.1299 56.699 53.9105C54.4863 57.691 51.5941 63.1528 50.5139 66.9769C49.4337 70.801 50.2264 71.9683 48.1879 73.3272C46.1494 74.6861 44.2765 75.8272 44.1632 76.6199C44.05 77.4126 44.3897 77.491 44.3897 77.491L54.6518 80.6705C55.0829 80.4183 55.421 80.0336 55.6156 79.5737C55.8103 79.1137 55.8511 78.6032 55.732 78.1182C55.3313 76.376 55.5056 73.8673 56.4115 72.8394C57.4929 71.4167 58.3724 69.8513 59.025 68.1877C59.2515 67.395 63.2762 62.4647 63.2762 62.4647C64.7438 65.2833 65.7636 68.3133 66.2991 71.4456C66.9263 75.9231 67.1702 76.89 65.9593 78.1356C64.7484 79.3813 63.4069 79.2768 63.3459 80.7489C63.2863 81.0985 63.3063 81.4571 63.4043 81.7979C63.5023 82.1387 63.6759 82.4531 63.9121 82.7176H75.8294C75.8294 82.7176 75.9427 79.5033 75.2632 78.0224C74.5837 76.5415 72.5975 63.3357 72.3187 60.9925C72.0399 58.6493 71.2385 56.637 71.4475 55.6614C71.6566 54.6858 72.4755 52.177 72.4755 52.177C72.4755 52.177 77.7024 56.2102 82.9293 56.4367C86.3768 56.5517 89.8281 56.4002 93.2524 55.9837C93.2524 55.9837 94.5068 61.7678 93.2524 65.7922C91.9979 69.8167 92.3812 73.1094 90.7609 75.775C89.1405 78.4405 86.7884 79.9214 86.7362 81.228C86.6839 82.5347 86.9627 82.796 86.9627 82.796H98.9932C99.2888 82.4371 99.4905 82.0104 99.5802 81.5543C99.6699 81.0981 99.6448 80.6268 99.5072 80.1827C98.9409 78.937 98.0262 78.4405 99.0542 76.8377C100.082 75.2349 99.7337 72.7523 100.866 68.3271C101.999 63.902 102.399 59.8775 103.532 59.6162C104.664 59.3548 106.084 59.9646 108.637 62.4037C111.189 64.8427 113.803 69.3202 115.275 71.3063C116.747 73.2924 118.62 74.0851 118.228 76.5851C117.836 79.0851 117.096 81.0625 117.488 81.8117C117.802 82.3172 118.228 82.7435 118.733 83.0573L129.684 76.8726C129.684 76.8726 129.004 74.207 127.645 73.3882C126.286 72.5694 125.485 68.963 124.413 68.118C122.063 65.8559 120.037 63.2791 118.394 60.4611C117.742 59.061 116.923 57.7448 115.954 56.5412C115.621 56.0774 115.329 55.5848 115.083 55.0691C115.083 55.0691 115.475 49.224 114.744 45.94C114.012 42.656 113.489 40.8267 113.716 38.4486C113.942 36.0705 114.683 35.2691 114.683 35.2691C114.683 35.2691 118.881 39.6942 120.58 40.7744C122.279 41.8545 127.166 44.2588 129.945 43.2657C132.724 42.2727 133.944 41.9591 133.944 41.9591C133.944 41.9591 134.597 42.1943 135.956 41.4016C137.315 40.6089 137.149 39.7552 137.149 39.7552C137.149 39.7552 134.998 39.0148 133.944 39.8685C133.363 40.3139 132.839 40.8288 132.384 41.4016C132.384 41.4016 128.577 42.3511 127.053 41.9591C125.528 41.5671 120.807 39.642 118.995 36.9764C117.183 34.3109 115.362 32.0983 115.362 32.0983C113.934 26.9222 110.769 22.3948 106.398 19.2758C99.0281 13.9447 94.3761 11.4359 88.4698 11.2791C82.5634 11.1223 80.5336 14.1102 77.0142 14.3976C74.3797 14.4915 71.7442 14.2426 69.1738 13.6572C69.1738 13.6572 70.2541 7.55955 67.2486 7.55955C64.2432 7.55955 63.764 8.80521 61.0112 8.63971C58.2584 8.4742 58.058 8.12576 57.091 8.91846C56.5431 9.30889 55.9598 9.64718 55.3487 9.92892Z" fill="#D4D3D0"/>
</svg>
