<svg width="18" height="18" viewBox="0 0 18 18" fill="none" xmlns="http://www.w3.org/2000/svg">
<path d="M9.17974 0.130371C7.17849 0.144 5.24416 0.852576 3.70764 2.13488C2.17112 3.41719 1.1279 5.19355 0.75645 7.16007C0.384995 9.12659 0.708385 11.1611 1.6713 12.9155C2.63421 14.6699 4.17681 16.0353 6.03521 16.7779C5.9103 15.9606 5.9103 15.129 6.03521 14.3116L7.05256 9.99559C6.89155 9.60471 6.81184 9.18513 6.81826 8.76244C6.81826 7.56628 7.51499 6.66608 8.3782 6.66608C8.53457 6.66373 8.68961 6.69521 8.83269 6.75836C8.97577 6.8215 9.1035 6.91483 9.20715 7.03195C9.3108 7.14907 9.38791 7.2872 9.4332 7.4369C9.47848 7.58659 9.49088 7.7443 9.46954 7.89923C9.46954 8.37623 9.27478 9.00697 9.0703 9.66922C8.9576 10.0342 8.84194 10.4088 8.75431 10.7725C8.70122 10.9634 8.69491 11.1642 8.73591 11.358C8.7769 11.5519 8.86399 11.733 8.98981 11.886C9.11563 12.0391 9.27647 12.1595 9.45872 12.2372C9.64096 12.3149 9.83925 12.3476 10.0368 12.3324C11.5659 12.3324 12.7497 10.7108 12.7497 8.38016C12.7651 7.90656 12.6816 7.43495 12.5045 6.99543C12.3275 6.5559 12.0607 6.15811 11.7213 5.82742C11.382 5.49674 10.9774 5.24043 10.5334 5.07483C10.0894 4.90924 9.61579 4.83801 9.14275 4.86568C8.63771 4.84399 8.13352 4.925 7.6607 5.10381C7.18788 5.28263 6.75625 5.55552 6.39196 5.90599C6.02766 6.25645 5.73827 6.67719 5.54129 7.14274C5.34432 7.60828 5.24385 8.10896 5.24599 8.61446C5.23913 9.31868 5.45493 10.0071 5.86256 10.5813C5.8922 10.6143 5.91332 10.654 5.92407 10.697C5.93482 10.74 5.93487 10.785 5.92422 10.828C5.85637 11.0994 5.70841 11.6912 5.68376 11.8083C5.65909 11.9255 5.55428 11.9995 5.39397 11.9255C4.31496 11.4199 3.64289 9.84762 3.64289 8.57747C3.64289 5.85837 5.6221 3.35507 9.34622 3.35507C12.3366 3.35507 14.6673 5.48842 14.6673 8.34317C14.6673 11.3151 12.8175 13.7074 10.1848 13.7074C9.7988 13.7208 9.41559 13.6376 9.06995 13.4653C8.72431 13.293 8.42718 13.0371 8.20555 12.7209L7.66913 14.7741C7.41199 15.572 7.0513 16.3328 6.59629 17.0369C7.4347 17.2847 8.30555 17.4052 9.17974 17.3945C11.4691 17.3945 13.6647 16.4851 15.2835 14.8662C16.9024 13.2474 17.8118 11.0518 17.8118 8.76244C17.8118 6.47307 16.9024 4.27747 15.2835 2.65865C13.6647 1.03982 11.4691 0.130371 9.17974 0.130371Z" fill="#9EB279"/>
</svg>
