<svg width="37" height="39" viewBox="0 0 37 39" fill="none" xmlns="http://www.w3.org/2000/svg">
<path opacity="0.8" d="M36.3816 19.4016C36.3816 9.32207 28.3418 1.16462 18.4408 1.16462C8.53985 1.16462 0.5 9.32207 0.5 19.4016C0.5 29.4812 8.53985 37.6387 18.4408 37.6387C28.3418 37.6387 36.3816 29.4812 36.3816 19.4016Z" stroke="white"/>
<path d="M15.9206 24.8664C16.0836 24.9471 16.2666 24.9829 16.4495 24.9701C16.6324 24.9573 16.808 24.8962 16.9571 24.7936L23.9338 20.0059C24.063 19.9173 24.1684 19.8004 24.241 19.6648C24.3137 19.5292 24.3516 19.3789 24.3516 19.2265C24.3516 19.074 24.3137 18.9237 24.241 18.7881C24.1684 18.6525 24.063 18.5356 23.9338 18.447L16.9571 13.6593C16.8081 13.5568 16.6325 13.4958 16.4497 13.4829C16.2669 13.4701 16.084 13.5059 15.921 13.5865C15.7581 13.667 15.6214 13.7892 15.526 13.9396C15.4306 14.0899 15.3802 14.2626 15.3804 14.4387V24.0142C15.3802 24.1902 15.4305 24.3629 15.5258 24.5133C15.6211 24.6636 15.7577 24.7858 15.9206 24.8664V24.8664Z" fill="white"/>
</svg>
