<svg width="31" height="31" viewBox="0 0 31 31" fill="none" xmlns="http://www.w3.org/2000/svg">
<path fill-rule="evenodd" clip-rule="evenodd" d="M21.5073 15.352C21.5073 15.4634 21.4632 15.5703 21.3848 15.6491C21.3063 15.7279 21.1998 15.7722 21.0889 15.7722L11.219 15.7722L13.8528 18.4161C13.9314 18.495 13.9755 18.602 13.9755 18.7136C13.9755 18.8251 13.9314 18.9321 13.8528 19.0111C13.7742 19.09 13.6677 19.1343 13.5565 19.1343C13.4454 19.1343 13.3388 19.09 13.2603 19.0111L9.91256 15.6495C9.87359 15.6104 9.84267 15.5641 9.82158 15.513C9.80048 15.462 9.78962 15.4073 9.78962 15.352C9.78962 15.2967 9.80048 15.242 9.82158 15.1909C9.84267 15.1399 9.87359 15.0935 9.91256 15.0545L13.2603 11.6929C13.3388 11.614 13.4454 11.5697 13.5565 11.5697C13.6677 11.5697 13.7742 11.614 13.8528 11.6929C13.9314 11.7718 13.9755 11.8788 13.9755 11.9904C13.9755 12.102 13.9314 12.209 13.8528 12.2879L11.219 14.9318L21.0889 14.9318C21.1998 14.9318 21.3063 14.9761 21.3848 15.0549C21.4632 15.1337 21.5073 15.2405 21.5073 15.352Z" fill="#918F8B"/>
<circle opacity="0.8" cx="15.5" cy="15.5" r="15" transform="rotate(180 15.5 15.5)" stroke="#918F8B"/>
</svg>
