<svg width="18" height="16" viewBox="0 0 18 16" fill="none" xmlns="http://www.w3.org/2000/svg">
<path d="M2.31832 10.216C1.8598 10.216 1.41158 10.0894 1.03033 9.85223C0.649087 9.61507 0.351941 9.278 0.176473 8.88362C0.0010045 8.48925 -0.044906 8.05529 0.044547 7.63663C0.134 7.21797 0.354799 6.8334 0.679022 6.53156C1.00325 6.22972 1.41633 6.02416 1.86604 5.94089C2.31575 5.85761 2.78189 5.90035 3.20551 6.0637C3.62913 6.22706 3.9912 6.50369 4.24594 6.85862C4.50068 7.21354 4.63665 7.63082 4.63665 8.05769C4.63665 8.6301 4.3924 9.17906 3.95763 9.58382C3.52286 9.98857 2.93318 10.216 2.31832 10.216ZM2.31832 6.37424C1.95544 6.37281 1.60028 6.47178 1.29791 6.65859C0.995548 6.84539 0.759606 7.11161 0.62003 7.42345C0.480453 7.7353 0.443532 8.07872 0.513954 8.41013C0.584375 8.74154 0.758963 9.04601 1.01556 9.2849C1.27217 9.52378 1.59921 9.68632 1.9552 9.75188C2.31119 9.81744 2.68008 9.78307 3.01505 9.65313C3.35002 9.52318 3.63598 9.30353 3.83664 9.02204C4.03729 8.74055 4.1436 8.40991 4.14207 8.07208C4.14207 7.62178 3.94993 7.18993 3.60791 6.87152C3.26589 6.55311 2.80201 6.37424 2.31832 6.37424Z" fill="#918F8B"/>
<path d="M15.0312 4.31655C14.5727 4.31655 14.1245 4.18997 13.7432 3.95281C13.362 3.71566 13.0648 3.37858 12.8894 2.98421C12.7139 2.58984 12.668 2.15588 12.7574 1.73722C12.8469 1.31855 13.0677 0.933985 13.3919 0.632145C13.7161 0.330305 14.1292 0.124749 14.5789 0.0414716C15.0286 -0.0418059 15.4948 0.00093515 15.9184 0.16429C16.342 0.327644 16.7041 0.604276 16.9588 0.959202C17.2136 1.31413 17.3495 1.73141 17.3495 2.15827C17.3495 2.73068 17.1053 3.27965 16.6705 3.6844C16.2357 4.08916 15.6461 4.31655 15.0312 4.31655ZM15.0312 0.474821C14.6699 0.474833 14.3166 0.574784 14.0164 0.761989C13.7162 0.949194 13.4824 1.21521 13.3449 1.52629C13.2073 1.83737 13.1721 2.17949 13.2437 2.50922C13.3154 2.83896 13.4906 3.14145 13.7472 3.37832C14.0038 3.61518 14.3302 3.77574 14.685 3.83962C15.0398 3.90349 15.4069 3.86781 15.7399 3.7371C16.0729 3.60638 16.3566 3.38653 16.5551 3.10543C16.7537 2.82434 16.858 2.49467 16.855 2.15827C16.856 1.93437 16.8096 1.71246 16.7185 1.50524C16.6274 1.29801 16.4934 1.10952 16.324 0.95052C16.1547 0.791525 15.9533 0.66514 15.7315 0.578581C15.5097 0.492023 15.2717 0.446987 15.0312 0.446044V0.474821Z" fill="#918F8B"/>
<path d="M15.0312 16.0001C14.5727 16.0001 14.1245 15.8736 13.7432 15.6364C13.362 15.3993 13.0648 15.0622 12.8894 14.6678C12.7139 14.2734 12.668 13.8395 12.7574 13.4208C12.8469 13.0021 13.0677 12.6176 13.3919 12.3157C13.7161 12.0139 14.1292 11.8083 14.5789 11.7251C15.0286 11.6418 15.4948 11.6845 15.9184 11.8479C16.342 12.0112 16.7041 12.2879 16.9588 12.6428C17.2136 12.9977 17.3495 13.415 17.3495 13.8419C17.3495 14.4143 17.1053 14.9632 16.6705 15.368C16.2357 15.7728 15.6461 16.0001 15.0312 16.0001ZM15.0312 12.1512C14.6687 12.1498 14.3138 12.2486 14.0116 12.4351C13.7094 12.6216 13.4735 12.8873 13.3337 13.1988C13.1938 13.5102 13.1565 13.8532 13.2263 14.1845C13.2961 14.5157 13.4699 14.8202 13.7257 15.0593C13.9815 15.2985 14.3079 15.4616 14.6633 15.528C15.0188 15.5944 15.3875 15.561 15.7226 15.4322C16.0577 15.3033 16.3442 15.0848 16.5458 14.8043C16.7473 14.5237 16.855 14.1938 16.855 13.8563C16.855 13.4053 16.6631 12.9727 16.3213 12.6532C15.9795 12.3336 15.5156 12.1531 15.0312 12.1512Z" fill="#918F8B"/>
<path d="M4.14934 7.439C4.10496 7.43791 4.06165 7.42606 4.0237 7.4046C3.98575 7.38315 3.95447 7.35285 3.93296 7.3167C3.90569 7.26306 3.90171 7.20169 3.92187 7.14539C3.94203 7.08909 3.98476 7.04221 4.04115 7.01454L13.0749 2.8059C13.1027 2.79251 13.1331 2.7845 13.1643 2.78233C13.1954 2.78017 13.2268 2.78391 13.2564 2.79332C13.286 2.80273 13.3132 2.81762 13.3365 2.83709C13.3598 2.85656 13.3785 2.88021 13.3917 2.90662C13.4064 2.93205 13.4154 2.95994 13.4183 2.98867C13.4211 3.01739 13.4178 3.04636 13.4084 3.07386C13.399 3.10135 13.3838 3.12683 13.3637 3.14877C13.3436 3.1707 13.319 3.18866 13.2913 3.20159L4.25753 7.41022C4.22497 7.42886 4.18755 7.43881 4.14934 7.439Z" fill="#918F8B"/>
<path d="M13.1753 13.2375C13.14 13.2471 13.1025 13.2471 13.0671 13.2375L4.12612 9.15114C4.09771 9.13839 4.07227 9.12055 4.05126 9.09864C4.03025 9.07674 4.01408 9.05119 4.00368 9.02347C3.99327 8.99574 3.98884 8.96638 3.99062 8.93706C3.9924 8.90774 4.00037 8.87904 4.01407 8.85258C4.02777 8.82613 4.04693 8.80245 4.07046 8.78289C4.094 8.76333 4.12144 8.74828 4.15121 8.73859C4.18099 8.7289 4.21253 8.72477 4.24403 8.72643C4.27552 8.72809 4.30636 8.73551 4.33477 8.74827L13.2758 12.813C13.333 12.838 13.3773 12.883 13.399 12.9383C13.4207 12.9935 13.4181 13.0545 13.3917 13.108C13.3712 13.1455 13.3403 13.1772 13.3023 13.2C13.2643 13.2227 13.2205 13.2357 13.1753 13.2375Z" fill="#918F8B"/>
</svg>
