<svg width="171" height="106" viewBox="0 0 171 106" fill="none" xmlns="http://www.w3.org/2000/svg">
<path d="M70.5674 11.7343C70.5674 11.7343 69.4732 7.10365 69.9033 5.19959C70.3333 3.29554 68.9548 -0.130744 68.2508 0.124703C67.5467 0.380149 67.5809 3.77727 67.4079 4.33489C67.2349 4.89251 62.2056 10.4958 61.6731 12.5261C61.1406 14.5565 60.8299 16.1722 58.1323 16.3522C55.4347 16.5322 51.2661 16.0165 48.6761 19.6615C46.0862 23.3065 44.3645 25.5089 42.5594 28.1963C40.2506 31.3243 38.6886 34.9394 37.9932 38.7644C37.2536 43.4016 37.3541 48.2008 33.4405 48.975C29.527 49.7491 23.096 49.6685 20.7426 48.4946C18.3891 47.3206 12.9647 40.9964 9.79022 40.8763C6.61572 40.7562 4.48456 41.1638 2.57321 43.2179C0.661855 45.2721 0.440961 46.5223 1.00681 46.4786C1.57266 46.4349 2.63731 46.3992 2.63731 46.3992C2.63731 46.3992 2.42432 48.3006 3.40042 48.5979C4.37652 48.8953 5.03976 47.9982 6.43405 46.7056C7.82834 45.413 9.25813 44.903 10.6437 47.5701C12.0292 50.2372 12.7819 54.4318 18.0345 55.8347C23.287 57.2377 26.4921 58.2703 25.5198 58.7326C24.5475 59.1949 21.0752 58.6296 22.2375 59.4547C23.3998 60.2798 28.8257 61.1143 33.6679 59.8871C38.51 58.6599 41.7543 57.2203 42.9996 56.1391C44.2448 55.0579 45.8171 52.5027 46.0854 53.1529C46.3538 53.8032 46.0894 54.7696 48.3738 52.3173C50.6583 49.865 54.9138 45.5018 58.5629 46.2692C62.212 47.0365 65.4896 48.1586 68.1377 51.2966C70.7857 54.4346 70.6974 56.4817 71.4293 57.4967C72.1613 58.5117 73.1072 61.8999 70.1774 66.4977C67.2476 71.0954 63.3936 77.7521 61.8702 82.4573C60.3468 87.1626 61.2778 88.6516 58.6786 90.2458C56.0794 91.8399 53.6963 93.171 53.5181 94.1516C53.34 95.1321 53.7589 95.2456 53.7589 95.2456L66.3722 99.6828C66.9202 99.3894 67.3588 98.9268 67.6225 98.364C67.8862 97.8011 67.961 97.1681 67.8358 96.5593C67.4194 94.3737 67.7541 91.2618 68.9293 90.026C70.3411 88.3074 71.5085 86.402 72.3985 84.3637C72.7174 83.3885 77.9549 77.4459 77.9549 77.4459C79.6476 81.0206 80.7734 84.8369 81.2919 88.7578C81.8613 94.3559 82.1192 95.5699 80.5546 97.0622C78.99 98.5544 77.3264 98.3613 77.1813 100.189C77.0908 100.621 77.0988 101.068 77.2047 101.497C77.3105 101.925 77.5116 102.324 77.7929 102.664L92.6145 103.225C92.6145 103.225 92.9065 99.2328 92.1311 97.3591C91.3557 95.4854 89.5068 78.9679 89.2704 76.0405C89.0339 73.1131 88.1318 70.5728 88.4378 69.3692C88.7437 68.1657 89.8802 65.0841 89.8802 65.0841C89.8802 65.0841 96.1911 70.346 102.681 70.8736C106.963 71.1789 111.263 71.1529 115.541 70.796C115.541 70.796 116.829 78.0486 115.08 82.9948C113.33 87.941 113.652 92.0542 111.511 95.2931C109.371 98.5321 106.376 100.263 106.249 101.886C106.123 103.508 106.457 103.846 106.457 103.846L121.42 104.413C121.804 103.98 122.075 103.459 122.208 102.896C122.341 102.333 122.332 101.745 122.182 101.187C121.536 99.6107 120.422 98.9501 121.776 97.0051C123.13 95.06 122.813 91.956 124.43 86.5057C126.046 81.0554 126.734 76.0691 128.155 75.7973C129.576 75.5256 131.313 76.3508 134.373 79.5043C137.433 82.6579 140.472 88.3494 142.21 90.8888C143.947 93.4282 146.239 94.5022 145.634 97.593C145.029 100.684 144.015 103.108 144.467 104.058C144.834 104.702 145.344 105.252 145.958 105.666L159.868 98.4896C159.868 98.4896 159.148 95.1424 157.497 94.0601C155.845 92.9778 155.018 88.4549 153.725 87.3536C150.908 84.4295 148.51 81.1295 146.599 77.5475C145.854 75.7754 144.897 74.0999 143.75 72.5575C143.356 71.965 143.017 71.3385 142.735 70.6856C142.735 70.6856 143.498 63.4346 142.742 59.3158C141.987 55.197 141.423 52.8973 141.816 49.9504C142.21 47.0034 143.169 46.0415 143.169 46.0415C143.169 46.0415 148.183 51.7427 150.244 53.166C152.306 54.5893 158.271 57.8094 161.774 56.7051C165.277 55.6008 166.809 55.2681 166.809 55.2681C166.809 55.2681 167.61 55.5914 169.338 54.6694C171.065 53.7475 170.9 52.678 170.9 52.678C170.9 52.678 168.258 51.6559 166.907 52.668C166.164 53.1947 165.489 53.8104 164.896 54.5014C164.896 54.5014 160.116 55.5032 158.239 54.9439C156.361 54.3847 150.579 51.7682 148.451 48.3678C146.323 44.9674 144.163 42.13 144.163 42.13C142.63 35.6253 138.907 29.8457 133.618 25.7609C124.702 18.7838 119.035 15.4448 111.696 14.9719C104.358 14.499 101.693 18.1195 97.3025 18.3114C94.0215 18.3042 90.7555 17.8706 87.5863 17.0217C87.5863 17.0217 89.2167 9.48882 85.4788 9.34741C81.7409 9.206 81.0864 10.7327 77.6705 10.3973C74.2546 10.062 74.0218 9.61918 72.7819 10.5596C72.082 11.0194 71.3406 11.4126 70.5674 11.7343Z" fill="#D4D3D0"/>
</svg>
