<svg width="19" height="16" viewBox="0 0 19 16" fill="none" xmlns="http://www.w3.org/2000/svg">
<path d="M18.2907 2.58439C18.3427 2.51195 18.2659 2.41842 18.1828 2.45064C17.592 2.67963 16.9746 2.83413 16.3448 2.91026C17.0461 2.49133 17.5872 1.85361 17.8872 1.09859C17.9178 1.02168 17.8338 0.952992 17.7614 0.993003C17.1096 1.35294 16.4067 1.61212 15.6766 1.76139C15.646 1.76764 15.6145 1.75723 15.593 1.73459C15.0451 1.15642 14.3238 0.771466 13.5375 0.638439C12.7347 0.502617 11.9095 0.6371 11.1914 1.0208C10.4732 1.40449 9.90276 2.0157 9.56941 2.75855C9.25246 3.46486 9.16694 4.25221 9.32326 5.00836C9.33539 5.06703 9.28947 5.12242 9.22967 5.1187C7.80903 5.03047 6.42099 4.6526 5.15106 4.00787C3.88436 3.36477 2.76265 2.47012 1.85427 1.37909C1.81396 1.33067 1.73755 1.33693 1.70817 1.39267C1.42552 1.92904 1.27752 2.52687 1.27793 3.13447C1.27678 3.73928 1.4252 4.335 1.70998 4.86857C1.99476 5.40214 2.40706 5.85701 2.91017 6.19269C2.37662 6.17817 1.85347 6.04627 1.3777 5.80712C1.31638 5.7763 1.24284 5.82018 1.24603 5.88873C1.28313 6.68623 1.5759 7.48687 2.08267 8.10113C2.62196 8.75481 3.37048 9.20216 4.20162 9.3675C3.88168 9.46487 3.54951 9.5162 3.2151 9.51996C3.03309 9.51784 2.85144 9.5044 2.6712 9.47976C2.60436 9.47063 2.54979 9.53411 2.57319 9.59737C2.82109 10.2678 3.25904 10.8527 3.83488 11.2797C4.45052 11.7362 5.19314 11.9895 5.95942 12.0042C4.66547 13.0224 3.06791 13.578 1.42142 13.5826C1.25224 13.5832 1.08313 13.5777 0.914421 13.5662C0.819349 13.5597 0.775624 13.6864 0.857573 13.735C2.46181 14.6871 4.29542 15.1903 6.16569 15.188C7.54655 15.2023 8.91642 14.9414 10.1953 14.4204C11.4742 13.8994 12.6364 13.1287 13.6141 12.1535C14.5918 11.1783 15.3654 10.0181 15.8897 8.74052C16.414 7.46299 16.6785 6.09379 16.6677 4.71291V4.28258C16.6677 4.25426 16.6811 4.22764 16.7037 4.21058C17.312 3.75127 17.8469 3.20291 18.2907 2.58439Z" fill="#9EB279"/>
</svg>
