<svg width="22" height="18" viewBox="0 0 22 18" fill="none" xmlns="http://www.w3.org/2000/svg">
<path d="M21.0641 2.48654C21.1245 2.40241 21.0353 2.29377 20.9387 2.3312C20.2526 2.59717 19.5354 2.77661 18.8039 2.86505C19.6184 2.37846 20.2469 1.63775 20.5955 0.76081C20.631 0.671476 20.5334 0.591699 20.4493 0.638172C19.6923 1.05623 18.8759 1.35727 18.0278 1.53064C17.9923 1.5379 17.9557 1.52581 17.9308 1.49952C17.2943 0.827979 16.4566 0.380859 15.5433 0.226349C14.6109 0.0685943 13.6524 0.224794 12.8183 0.670451C11.9842 1.11611 11.3216 1.82602 10.9344 2.68883C10.5663 3.50921 10.4669 4.4237 10.6485 5.30196C10.6626 5.3701 10.6093 5.43444 10.5398 5.43012C8.88974 5.32764 7.27755 4.88875 5.80254 4.1399C4.33128 3.39295 3.02844 2.35382 1.97336 1.0866C1.92654 1.03036 1.83779 1.03764 1.80367 1.10238C1.47537 1.72537 1.30348 2.41974 1.30394 3.12546C1.30261 3.82794 1.475 4.51986 1.80577 5.13959C2.13654 5.75933 2.61542 6.28766 3.19978 6.67755C2.58006 6.66068 1.97243 6.50748 1.41983 6.22971C1.34861 6.19391 1.26319 6.24488 1.26689 6.3245C1.30998 7.25079 1.65004 8.18071 2.23865 8.89418C2.86502 9.65342 3.73442 10.173 4.69978 10.365C4.32817 10.4781 3.94235 10.5378 3.55394 10.5421C3.34255 10.5397 3.13156 10.5241 2.92221 10.4954C2.84459 10.4848 2.7812 10.5586 2.80838 10.632C3.09631 11.4107 3.60498 12.0901 4.27381 12.586C4.98887 13.1163 5.85142 13.4104 6.74144 13.4275C5.23853 14.6101 3.38299 15.2555 1.47061 15.2609C1.27411 15.2615 1.07769 15.2552 0.881737 15.2418C0.771312 15.2343 0.720525 15.3814 0.815708 15.4379C2.67901 16.5436 4.80872 17.1281 6.98103 17.1255C8.58487 17.1421 10.176 16.839 11.6614 16.2339C13.1468 15.6287 14.4967 14.7337 15.6323 13.601C16.7679 12.4683 17.6664 11.1207 18.2754 9.63682C18.8843 8.15298 19.1915 6.56268 19.1789 4.9588V4.45897C19.1789 4.42609 19.1945 4.39516 19.2207 4.37534C19.9273 3.84186 20.5486 3.20495 21.0641 2.48654Z" fill="white"/>
</svg>
