<svg width="14" height="16" viewBox="0 0 14 16" fill="none" xmlns="http://www.w3.org/2000/svg">
<path fill-rule="evenodd" clip-rule="evenodd" d="M3.45817 4.08545C3.45817 2.03164 5.04383 0.366699 6.99984 0.366699C8.95585 0.366699 10.5415 2.03164 10.5415 4.08545C10.5415 6.13926 8.95585 7.8042 6.99984 7.8042C5.04383 7.8042 3.45817 6.13926 3.45817 4.08545ZM6.99984 1.6792C5.73419 1.6792 4.70817 2.75651 4.70817 4.08545C4.70817 5.41438 5.73419 6.4917 6.99984 6.4917C8.26549 6.4917 9.2915 5.41438 9.2915 4.08545C9.2915 2.75651 8.26549 1.6792 6.99984 1.6792Z" fill="#222222"/>
<path fill-rule="evenodd" clip-rule="evenodd" d="M3.6665 10.4292C2.63097 10.4292 1.7915 11.3106 1.7915 12.398V13.4377C1.7915 13.4535 1.80243 13.467 1.81731 13.4696C5.24961 14.058 8.75007 14.058 12.1824 13.4696C12.1972 13.467 12.2082 13.4535 12.2082 13.4377V12.398C12.2082 11.3106 11.3687 10.4292 10.3332 10.4292H10.0491C10.0272 10.4292 10.0053 10.4328 9.98445 10.44L9.26318 10.6873C7.7925 11.1915 6.20718 11.1915 4.73649 10.6873L4.01523 10.44C3.99435 10.4328 3.97253 10.4292 3.95056 10.4292H3.6665ZM0.541504 12.398C0.541504 10.5858 1.94061 9.1167 3.6665 9.1167H3.95056C4.10431 9.1167 4.25708 9.14223 4.40323 9.19234L5.12449 9.43963C6.34306 9.85742 7.65661 9.85742 8.87518 9.43963L9.59645 9.19234C9.74259 9.14223 9.89537 9.1167 10.0491 9.1167H10.3332C12.0591 9.1167 13.4582 10.5858 13.4582 12.398V13.4377C13.4582 14.0968 13.0033 14.6587 12.3838 14.7649C8.81809 15.3762 5.18159 15.3762 1.6159 14.7649C0.996407 14.6587 0.541504 14.0968 0.541504 13.4377V12.398Z" fill="#222222"/>
</svg>
