<svg width="20" height="17" viewBox="0 0 20 17" fill="none" xmlns="http://www.w3.org/2000/svg">
<path fill-rule="evenodd" clip-rule="evenodd" d="M5.3595 1.09402C8.4867 0.822176 11.6282 0.822177 14.7554 1.09402L16.8561 1.27662C18.0261 1.37834 18.9833 2.3527 19.1768 3.63893C19.6607 6.85715 19.6607 10.1423 19.1768 13.3605C18.9833 14.6467 18.0261 15.6211 16.8561 15.7228L14.7554 15.9054C11.6282 16.1773 8.48669 16.1773 5.3595 15.9054L3.25885 15.7228C2.08878 15.6211 1.13157 14.6467 0.938153 13.3605C0.454209 10.1423 0.454209 6.85715 0.938153 3.63893C1.13157 2.3527 2.08878 1.37834 3.25885 1.27662L5.3595 1.09402ZM8.18243 11.0728V5.92666C8.18243 5.68376 8.42092 5.53372 8.60838 5.65869L12.468 8.23176C12.65 8.35314 12.65 8.64632 12.468 8.76769L8.60838 11.3408C8.42092 11.4657 8.18243 11.3157 8.18243 11.0728Z" fill="white"/>
</svg>
