<svg width="17" height="14" viewBox="0 0 17 14" fill="none" xmlns="http://www.w3.org/2000/svg">
<path fill-rule="evenodd" clip-rule="evenodd" d="M4.48729 0.385983C7.17969 0.151938 9.88442 0.151938 12.5768 0.385983L14.3854 0.543201C15.3928 0.630771 16.2169 1.46967 16.3834 2.57706C16.8001 5.34784 16.8001 8.17624 16.3834 10.947C16.2169 12.0544 15.3928 12.8933 14.3854 12.9809L12.5768 13.1381C9.88442 13.3721 7.17968 13.3721 4.48728 13.1381L2.67869 12.9809C1.6713 12.8933 0.847183 12.0544 0.680658 10.947C0.263999 8.17624 0.263999 5.34784 0.680658 2.57706C0.847183 1.46967 1.6713 0.630771 2.67869 0.543201L4.48729 0.385983ZM6.91772 8.97736V4.54672C6.91772 4.33759 7.12305 4.20841 7.28445 4.31601L10.6074 6.53133C10.7642 6.63583 10.7642 6.88825 10.6074 6.99275L7.28445 9.20807C7.12305 9.31566 6.91772 9.18649 6.91772 8.97736Z" fill="#9EB279"/>
</svg>
